<svg width="46" height="46" viewBox="0 0 46 46" fill="none" xmlns="http://www.w3.org/2000/svg">
<path d="M30.1874 17.3938L18.9749 27.3125C18.8312 27.4563 18.8312 27.6 18.8312 27.7438L18.3999 31.625C18.3999 31.7688 18.2562 31.7688 18.1124 31.625L16.3874 25.875C16.2437 25.5875 16.3874 25.3 16.6749 25.1563L29.7562 16.9625C30.1874 16.8188 30.4749 17.25 30.1874 17.3938Z" fill="white"/>
<path d="M23 3.16248C17.5375 3.16248 12.5063 5.31873 8.91255 8.91248C5.3188 12.5062 3.0188 17.5375 3.0188 23C3.0188 28.4625 5.17505 33.4937 8.91255 37.0875C12.5063 40.6812 17.5375 42.8375 23 42.8375C28.4625 42.8375 33.4938 40.6812 37.0875 37.0875C40.6813 33.4937 42.9813 28.4625 42.9813 23C42.8375 12.075 33.925 3.16248 23 3.16248ZM34.7875 14.5187L30.7625 34.0687C30.6188 34.9312 29.4688 35.3625 28.75 34.7875L22.5688 30.1875L19.4063 33.35C18.8313 33.925 17.9688 33.6375 17.6813 32.9187L15.3813 25.7312L9.3438 23.8625C8.4813 23.575 8.4813 22.5687 9.3438 22.2812L33.35 12.9375C34.0688 12.7937 35.075 13.5125 34.7875 14.5187Z" fill="white"/>
</svg>
