<svg width="46" height="46" viewBox="0 0 46 46" fill="none" xmlns="http://www.w3.org/2000/svg">
<g clip-path="url(#clip0_29697_1841)">
<path d="M0.5 23C0.5 10.573 10.573 0.5 23 0.5C35.427 0.5 45.5 10.573 45.5 23C45.5 35.4256 35.427 45.5 23 45.5C10.573 45.5 0.5 35.4256 0.5 23Z" fill="#040404" stroke="white"/>
<path d="M31.2798 25.0247L28.5615 27.1492L33.7666 33.8089L36.4848 31.6844L31.2798 25.0247Z" fill="white"/>
<path d="M32.3625 34.9083L27.1573 28.2484C27.1573 28.2484 23.7634 27.4534 21.3455 24.3614C18.9291 21.2693 18.9779 17.7834 18.9779 17.7834L13.7727 11.1234C13.7727 11.1234 8.84068 18.1887 16.5773 28.0874C24.3139 37.986 32.3625 34.9083 32.3625 34.9083Z" fill="white"/>
<path d="M17.8938 7.90137L15.1755 10.0259L20.3806 16.6856L23.0988 14.5611L17.8938 7.90137Z" fill="white"/>
</g>
<defs>
<clipPath id="clip0_29697_1841">
<rect width="46" height="46" fill="white"/>
</clipPath>
</defs>
</svg>
