<svg width="52" height="52" viewBox="0 0 52 52" fill="none" xmlns="http://www.w3.org/2000/svg">
<path d="M51 24.9989C50.8687 24.9989 50.7386 25.0247 50.6173 25.075C50.4959 25.1252 50.3857 25.1989 50.2928 25.2918C50.2 25.3846 50.1263 25.4949 50.0761 25.6162C50.0258 25.7376 50 25.8676 50 25.999C50.0003 31.4424 48.1503 36.7243 44.7536 40.9778C41.357 45.2314 36.6154 48.204 31.307 49.4079C25.9985 50.6117 20.4386 49.9753 15.5394 47.6032C10.6403 45.231 6.69291 41.2638 4.34512 36.3528C1.99733 31.4417 1.38854 25.8785 2.61865 20.5759C3.84877 15.2732 6.84472 10.5463 11.1149 7.1706C15.3851 3.79492 20.6758 1.97106 26.1189 1.9983C31.5621 2.02553 36.8343 3.90224 41.0705 7.32047H36.8535C36.5883 7.32047 36.3339 7.42583 36.1464 7.61338C35.9589 7.80092 35.8535 8.05529 35.8535 8.32051C35.8535 8.58574 35.9589 8.8401 36.1464 9.02765C36.3339 9.21519 36.5883 9.32055 36.8535 9.32055H43.6777C43.9426 9.31953 44.1964 9.21384 44.3837 9.02652C44.571 8.8392 44.6767 8.58543 44.6777 8.32051V1.49603C44.6777 1.2308 44.5724 0.976434 44.3848 0.78889C44.1973 0.601346 43.943 0.495985 43.6777 0.495985C43.4125 0.495985 43.1582 0.601346 42.9706 0.78889C42.7831 0.976434 42.6777 1.2308 42.6777 1.49603V6.05577C37.5419 1.76024 30.9469 -0.388256 24.2665 0.0578026C17.586 0.503861 11.3352 3.51008 6.81598 8.45029C2.29675 13.3905 -0.142454 19.8838 0.00643626 26.5777C0.155326 33.2717 2.88083 39.6501 7.61524 44.3845C11.2514 48.0208 15.8842 50.4971 20.9277 51.5004C25.9712 52.5036 31.1989 51.9887 35.9498 50.0208C40.7006 48.0528 44.7613 44.7202 47.6182 40.4444C50.4751 36.1685 52 31.1415 52 25.999C52 25.8676 51.9742 25.7376 51.924 25.6162C51.8737 25.4949 51.8001 25.3846 51.7072 25.2918C51.6143 25.1989 51.5041 25.1252 51.3827 25.075C51.2614 25.0247 51.1313 24.9989 51 24.9989Z" fill="white"/>
<path d="M31.524 18.822L26.4283 32.8226C26.383 32.946 26.3626 33.0772 26.3681 33.2086C26.3736 33.34 26.4049 33.469 26.4604 33.5882C26.5158 33.7075 26.5942 33.8146 26.6911 33.9035C26.788 33.9924 26.9015 34.0613 27.0251 34.1063C27.1487 34.1512 27.2799 34.1714 27.4113 34.1655C27.5426 34.1597 27.6716 34.128 27.7907 34.0723C27.9097 34.0165 28.0167 33.9378 28.1053 33.8407C28.194 33.7435 28.2626 33.6299 28.3072 33.5062L33.4029 19.5056C33.4936 19.2565 33.4815 18.9815 33.3695 18.7412C33.2574 18.5009 33.0544 18.315 32.8053 18.2243C32.5561 18.1337 32.2811 18.1457 32.0409 18.2578C31.8006 18.3699 31.6147 18.5728 31.524 18.822Z" fill="white"/>
<path d="M17.5603 24.1904C17.5616 23.7052 17.4667 23.2246 17.2811 22.7764C17.0954 22.3281 16.8227 21.9211 16.4788 21.579C15.0833 20.1824 12.6516 20.1824 11.2561 21.579C10.912 21.921 10.6392 22.328 10.4535 22.7763C10.2677 23.2245 10.1728 23.7052 10.1741 24.1904C10.1741 24.4556 10.2794 24.71 10.467 24.8975C10.6545 25.0851 10.9089 25.1904 11.1741 25.1904C11.4393 25.1904 11.6937 25.0851 11.8812 24.8975C12.0687 24.71 12.1741 24.4556 12.1741 24.1904C12.1736 23.9679 12.2171 23.7476 12.3023 23.5421C12.3874 23.3366 12.5125 23.15 12.6702 22.9931C12.9925 22.6847 13.4214 22.5126 13.8674 22.5126C14.3135 22.5126 14.7424 22.6847 15.0647 22.9931C15.3821 23.3105 15.5603 23.741 15.5603 24.1899C15.5603 24.6388 15.3821 25.0693 15.0647 25.3867L10.4671 29.9846C10.3272 30.1244 10.2319 30.3026 10.1933 30.4966C10.1547 30.6906 10.1745 30.8916 10.2502 31.0744C10.3259 31.2571 10.4541 31.4133 10.6185 31.5232C10.783 31.633 10.9763 31.6917 11.1741 31.6917H16.5603C16.8256 31.6917 17.0799 31.5863 17.2674 31.3988C17.455 31.2112 17.5603 30.9569 17.5603 30.6916C17.5603 30.4264 17.455 30.172 17.2674 29.9845C17.0799 29.797 16.8256 29.6916 16.5603 29.6916H13.5881L16.4788 26.8009C16.8227 26.4589 17.0954 26.0521 17.281 25.604C17.4667 25.1559 17.5616 24.6754 17.5603 24.1904Z" fill="white"/>
<path d="M23.2613 31.6914C23.3926 31.6914 23.5227 31.6656 23.644 31.6153C23.7653 31.5651 23.8756 31.4914 23.9685 31.3986C24.0613 31.3057 24.135 31.1954 24.1852 31.0741C24.2355 30.9527 24.2613 30.8227 24.2613 30.6914V29.2H24.7774C25.0426 29.2 25.297 29.0947 25.4845 28.9071C25.6721 28.7196 25.7774 28.4652 25.7774 28.2C25.7774 27.9348 25.6721 27.6804 25.4845 27.4929C25.297 27.3053 25.0426 27.2 24.7774 27.2H24.2613V21.4966C24.2612 21.2814 24.1917 21.0719 24.0631 20.8993C23.9345 20.7267 23.7536 20.6002 23.5474 20.5385C23.3411 20.4769 23.1205 20.4834 22.9183 20.5571C22.7161 20.6309 22.543 20.7679 22.4249 20.9478L18.0294 27.6512C17.9304 27.802 17.8741 27.9768 17.8664 28.1571C17.8587 28.3373 17.8999 28.5163 17.9856 28.6751C18.0713 28.8338 18.1984 28.9664 18.3534 29.0589C18.5083 29.1513 18.6854 29.2001 18.8658 29.2H22.2613V30.6914C22.2612 30.8227 22.2871 30.9527 22.3373 31.0741C22.3876 31.1954 22.4612 31.3057 22.5541 31.3986C22.647 31.4914 22.7572 31.5651 22.8786 31.6153C22.9999 31.6656 23.13 31.6914 23.2613 31.6914ZM20.7173 27.2L22.2613 24.8454V27.2H20.7173Z" fill="white"/>
<path d="M36.8691 30.6915C36.8691 30.9567 36.9745 31.2111 37.162 31.3986C37.3496 31.5861 37.6039 31.6915 37.8691 31.6915C38.1344 31.6915 38.3887 31.5861 38.5762 31.3986C38.7638 31.2111 38.8691 30.9567 38.8691 30.6915V28.6327C38.866 27.4383 39.0998 26.2551 39.5569 25.1515C40.014 24.048 40.6854 23.0461 41.5322 22.2037C41.6721 22.0639 41.7673 21.8857 41.8059 21.6917C41.8445 21.4978 41.8247 21.2967 41.7491 21.114C41.6734 20.9312 41.5452 20.775 41.3808 20.6652C41.2163 20.5553 41.023 20.4966 40.8252 20.4966H34.9136C34.6484 20.4966 34.394 20.602 34.2065 20.7895C34.0189 20.9771 33.9136 21.2315 33.9136 21.4967C33.9136 21.7619 34.0189 22.0163 34.2065 22.2038C34.394 22.3914 34.6484 22.4967 34.9136 22.4967H38.7168C37.5064 24.3137 36.8633 26.4495 36.8691 28.6327V30.6915Z" fill="white"/>
</svg>
