<svg width="46" height="46" viewBox="0 0 46 46" fill="none" xmlns="http://www.w3.org/2000/svg">
<g clip-path="url(#clip0_29812_24)">
<path d="M29.7562 16.8187C26.5937 13.3687 21.1312 13.3687 17.8249 16.5312C14.9499 19.4062 14.6624 23.7187 16.8187 26.8812L16.6749 27.3125L15.9562 28.75L14.8062 31.05L17.2499 30.0437L18.8312 29.4687L19.2624 29.325C22.4249 31.3375 26.8812 31.05 29.6124 28.175C32.6312 25.1562 32.7749 19.9812 29.7562 16.8187ZM28.4624 25.4437C28.4624 25.5875 28.3187 25.5875 28.3187 25.7312C28.1749 25.875 28.0312 26.1625 27.7437 26.3062C27.5999 26.45 27.3124 26.45 27.1687 26.5937H27.0249C25.5874 26.5937 24.2937 26.1625 22.9999 25.3C21.8499 24.5812 21.1312 23.575 20.5562 22.2812C20.2687 21.5625 19.9812 20.7 19.8374 19.9812C19.8374 19.6937 19.8374 19.4062 19.8374 19.1187C19.8374 18.975 19.8374 18.6875 19.9812 18.5437C20.1249 18.4 20.4124 18.2562 20.5562 17.9687C20.9874 17.5375 21.7062 17.5375 22.1374 17.9687C22.2812 18.1125 22.4249 18.4 22.5687 18.5437C22.7124 18.975 22.7124 19.2625 22.8562 19.6937C22.8562 20.125 22.8562 20.4125 22.5687 20.7C22.4249 20.8437 22.2812 20.9875 22.2812 20.9875C22.2812 20.9875 22.2812 20.9875 22.2812 21.1312C22.7124 22.7125 23.7187 23.7187 25.2999 24.15H25.4437C25.5874 24.0062 25.5874 24.0062 25.7312 23.8625C26.0187 23.575 26.4499 23.4312 26.8812 23.575C27.1687 23.7187 27.5999 23.7187 27.8874 23.8625C28.3187 24.0062 28.7499 24.8687 28.4624 25.4437Z" fill="white"/>
<path d="M23 2.875C11.9313 2.875 2.875 11.9313 2.875 23C2.875 34.0688 11.9313 43.125 23 43.125C34.0688 43.125 43.125 34.0688 43.125 23C43.125 11.9313 34.0688 2.875 23 2.875ZM31.1938 29.1812C28.0313 32.775 22.8563 33.4938 18.8313 31.1938L12.9375 33.4937C12.5063 33.6375 12.075 33.2062 12.3625 32.775L15.0938 27.3125C12.9375 23.575 13.5125 18.6875 16.8187 15.3812C20.7 11.3562 27.3125 11.5 31.1938 15.8125C34.6438 19.55 34.6438 25.4437 31.1938 29.1812Z" fill="white"/>
</g>
<defs>
<clipPath id="clip0_29812_24">
<rect width="46" height="46" fill="white"/>
</clipPath>
</defs>
</svg>
