<svg width="46" height="46" viewBox="0 0 46 46" fill="none" xmlns="http://www.w3.org/2000/svg">
<path d="M23 2.875C17.3938 2.875 12.3625 5.175 8.76875 8.76875C5.175 12.3625 2.875 17.3938 2.875 23C2.875 34.0688 11.9313 43.125 23 43.125C28.6063 43.125 33.6375 40.825 37.2313 37.2313C40.825 33.6375 43.125 28.6063 43.125 23C43.125 11.9313 34.0688 2.875 23 2.875ZM35.5063 30.7625C34.9313 30.9062 31.7687 30.7625 31.625 30.7625C30.7625 30.7625 30.0438 30.475 29.4688 29.9C28.75 29.325 28.175 28.6062 27.6 27.8875C27.4563 27.7437 27.1687 27.4562 27.025 27.3125C26.45 26.8813 26.0187 27.025 25.7312 27.6C25.5875 28.175 25.3 29.4688 25.3 29.6125C25.3 30.1875 24.8687 30.6187 24.15 30.6187C22.1375 30.7625 20.2687 30.475 18.5437 29.6125C17.1062 28.75 15.8125 27.7437 14.8063 26.3062C13.225 24.15 11.9313 21.85 10.6375 19.55C10.6375 19.4062 9.34375 16.8188 9.34375 16.675C9.2 16.2438 9.34375 15.9563 9.63125 15.8125C10.0625 15.8125 13.9438 15.8125 14.0875 15.8125C14.6625 15.8125 15.0938 16.1 15.3812 16.8187C16.1 18.6875 17.1063 20.4125 18.4 21.9937C18.5437 22.1375 18.8313 22.425 18.975 22.5688C19.2625 22.7125 19.55 22.7125 19.6938 22.2812C19.8375 21.85 19.9812 21.1313 19.9812 20.7C19.9812 19.6938 19.9812 18.975 19.9812 17.825C19.9812 17.1062 19.6938 16.5312 18.6875 16.3875C18.4 16.3875 18.4 16.1 18.5437 15.8125C18.975 15.2375 19.55 15.2375 20.125 15.2375C21.1313 15.2375 22.1375 15.2375 23.1438 15.2375C23.575 15.2375 24.0063 15.2375 24.4375 15.3812C25.0125 15.525 25.3 15.8125 25.3 16.3875C25.3 16.675 25.3 16.9625 25.3 17.25C25.3 18.4 25.1562 19.55 25.1562 20.7C25.1562 21.1313 25.1562 21.5625 25.3 22.1375C25.4438 22.7125 25.875 22.8563 26.3062 22.425C26.8812 21.85 27.3125 21.275 27.7437 20.5562C28.6062 19.4062 29.1813 18.1125 29.7563 16.675C30.0438 15.9563 30.1875 15.8125 31.05 15.8125C32.4875 15.8125 33.7812 15.8125 35.2188 15.8125C35.5062 15.8125 35.65 15.8125 35.9375 15.9563C36.3688 16.1 36.5125 16.3875 36.3687 16.8187C36.225 17.6812 35.65 18.5437 35.075 19.2625C34.2125 20.4125 33.35 21.7062 32.4875 22.8562C32.3438 23 32.3438 23.1438 32.2 23.2875C31.9125 23.8625 31.9125 24.15 32.3438 24.725C33.0625 25.4438 33.925 26.3062 34.6438 27.025C35.2188 27.6 35.65 28.175 36.0812 28.8938C36.8 29.7563 36.5125 30.6187 35.5063 30.7625Z" fill="white"/>
</svg>
