<svg width="52" height="52" viewBox="0 0 52 52" fill="none" xmlns="http://www.w3.org/2000/svg">
<path d="M51 24.826C50.8687 24.826 50.7386 24.8516 50.6173 24.9013C50.4959 24.951 50.3857 25.0239 50.2928 25.1158C50.2 25.2077 50.1263 25.3168 50.0761 25.4369C50.0258 25.557 50 25.6857 50 25.8157C50.0003 31.2028 48.1503 36.4299 44.7536 40.6394C41.357 44.849 36.6154 47.7908 31.307 48.9822C25.9985 50.1736 20.4386 49.5438 15.5394 47.1962C10.6403 44.8486 6.69291 40.9225 4.34512 36.0623C1.99733 31.2021 1.38854 25.6964 2.61865 20.4487C3.84877 15.201 6.84472 10.523 11.1149 7.18229C15.3851 3.84157 20.6758 2.03659 26.1189 2.06354C31.5621 2.09049 36.8343 3.94777 41.0705 7.33061H36.8535C36.5883 7.33061 36.3339 7.43488 36.1464 7.62048C35.9589 7.80609 35.8535 8.05782 35.8535 8.3203C35.8535 8.58278 35.9589 8.83451 36.1464 9.02011C36.3339 9.20571 36.5883 9.30998 36.8535 9.30998H43.6777C43.9426 9.30897 44.1964 9.20438 44.3837 9.01899C44.571 8.83361 44.6767 8.58247 44.6777 8.3203V1.56647C44.6777 1.30399 44.5724 1.05226 44.3848 0.866659C44.1973 0.681057 43.943 0.576787 43.6777 0.576787C43.4125 0.576787 43.1582 0.681057 42.9706 0.866659C42.7831 1.05226 42.6777 1.30399 42.6777 1.56647V6.07901C37.5419 1.82795 30.9469 -0.298298 24.2665 0.143142C17.586 0.584581 11.3352 3.55967 6.81598 8.44873C2.29675 13.3378 -0.142454 19.7639 0.00643626 26.3885C0.155326 33.0131 2.88083 39.3255 7.61524 44.0108C11.2514 47.6095 15.8842 50.0602 20.9277 51.0531C25.9712 52.0459 31.1989 51.5364 35.9498 49.5888C40.7006 47.6412 44.7613 44.3431 47.6182 40.1115C50.4751 35.8799 52 30.905 52 25.8157C52 25.6857 51.9742 25.557 51.924 25.4369C51.8737 25.3168 51.8001 25.2077 51.7072 25.1158C51.6143 25.0239 51.5041 24.951 51.3827 24.9013C51.2614 24.8516 51.1313 24.826 51 24.826Z" fill="white"/>
<path d="M31.524 18.7131L26.4283 32.5687C26.383 32.6909 26.3626 32.8207 26.3681 32.9508C26.3736 33.0808 26.4049 33.2085 26.4604 33.3265C26.5158 33.4445 26.5942 33.5505 26.6911 33.6385C26.788 33.7265 26.9015 33.7946 27.0251 33.8391C27.1487 33.8836 27.2799 33.9036 27.4113 33.8978C27.5426 33.892 27.6716 33.8606 27.7907 33.8055C27.9097 33.7503 28.0167 33.6724 28.1053 33.5763C28.194 33.4802 28.2626 33.3677 28.3072 33.2453L33.4029 19.3897C33.4936 19.1431 33.4815 18.871 33.3695 18.6332C33.2574 18.3954 33.0544 18.2114 32.8053 18.1216C32.5561 18.0319 32.2811 18.0438 32.0409 18.1548C31.8006 18.2657 31.6147 18.4665 31.524 18.7131Z" fill="white"/>
<path d="M17.5603 24.0257C17.5616 23.5456 17.4667 23.07 17.2811 22.6263C17.0954 22.1827 16.8227 21.78 16.4788 21.4413C15.0833 20.0593 12.6516 20.0593 11.2561 21.4413C10.912 21.7799 10.6392 22.1826 10.4535 22.6262C10.2677 23.0699 10.1728 23.5455 10.1741 24.0257C10.1741 24.2882 10.2794 24.54 10.467 24.7256C10.6545 24.9112 10.9089 25.0154 11.1741 25.0154C11.4393 25.0154 11.6937 24.9112 11.8812 24.7256C12.0687 24.54 12.1741 24.2882 12.1741 24.0257C12.1736 23.8056 12.2171 23.5875 12.3023 23.3841C12.3874 23.1807 12.5125 22.9961 12.6702 22.8408C12.9925 22.5356 13.4214 22.3653 13.8674 22.3653C14.3135 22.3653 14.7424 22.5356 15.0647 22.8408C15.3821 23.155 15.5603 23.581 15.5603 24.0253C15.5603 24.4695 15.3821 24.8955 15.0647 25.2097L10.4671 29.7599C10.3272 29.8983 10.2319 30.0746 10.1933 30.2666C10.1547 30.4586 10.1745 30.6576 10.2502 30.8384C10.3259 31.0193 10.4541 31.1738 10.6185 31.2826C10.783 31.3913 10.9763 31.4494 11.1741 31.4493H16.5603C16.8256 31.4493 17.0799 31.3451 17.2674 31.1595C17.455 30.9739 17.5603 30.7221 17.5603 30.4597C17.5603 30.1972 17.455 29.9454 17.2674 29.7598C17.0799 29.5742 16.8256 29.47 16.5603 29.47H13.5881L16.4788 26.6092C16.8227 26.2707 17.0954 25.8681 17.281 25.4247C17.4667 24.9812 17.5616 24.5057 17.5603 24.0257Z" fill="white"/>
<path d="M23.2613 31.4494C23.3926 31.4495 23.5227 31.4239 23.644 31.3742C23.7653 31.3244 23.8756 31.2515 23.9685 31.1596C24.0613 31.0677 24.135 30.9586 24.1852 30.8385C24.2355 30.7184 24.2613 30.5897 24.2613 30.4598V28.9839H24.7774C25.0426 28.9839 25.297 28.8796 25.4845 28.694C25.6721 28.5084 25.7774 28.2567 25.7774 27.9942C25.7774 27.7317 25.6721 27.48 25.4845 27.2944C25.297 27.1088 25.0426 27.0045 24.7774 27.0045H24.2613V21.3602C24.2612 21.1472 24.1917 20.9399 24.0631 20.7691C23.9345 20.5983 23.7536 20.4731 23.5474 20.4121C23.3411 20.3511 23.1205 20.3575 22.9183 20.4305C22.7161 20.5034 22.543 20.639 22.4249 20.817L18.0294 27.451C17.9304 27.6003 17.8741 27.7733 17.8664 27.9517C17.8587 28.1301 17.8999 28.3073 17.9856 28.4644C18.0713 28.6215 18.1984 28.7527 18.3534 28.8442C18.5083 28.9356 18.6854 28.9839 18.8658 28.9839H22.2613V30.4598C22.2612 30.5897 22.2871 30.7184 22.3373 30.8385C22.3876 30.9586 22.4612 31.0677 22.5541 31.1596C22.647 31.2515 22.7572 31.3244 22.8786 31.3742C22.9999 31.4239 23.13 31.4495 23.2613 31.4494ZM20.7173 27.0045L22.2613 24.6743V27.0045H20.7173Z" fill="white"/>
<path d="M36.8691 30.4599C36.8691 30.7223 36.9745 30.9741 37.162 31.1597C37.3496 31.3453 37.6039 31.4496 37.8691 31.4496C38.1344 31.4496 38.3887 31.3453 38.5762 31.1597C38.7638 30.9741 38.8691 30.7223 38.8691 30.4599V28.4225C38.866 27.2404 39.0998 26.0694 39.5569 24.9773C40.014 23.8852 40.6854 22.8937 41.5322 22.06C41.6721 21.9216 41.7673 21.7453 41.8059 21.5533C41.8445 21.3614 41.8247 21.1624 41.7491 20.9815C41.6734 20.8007 41.5452 20.6461 41.3808 20.5374C41.2163 20.4286 41.023 20.3706 40.8252 20.3706H34.9136C34.6484 20.3706 34.394 20.4749 34.2065 20.6605C34.0189 20.8461 33.9136 21.0978 33.9136 21.3603C33.9136 21.6228 34.0189 21.8745 34.2065 22.0601C34.394 22.2457 34.6484 22.35 34.9136 22.35H38.7168C37.5064 24.1482 36.8633 26.2618 36.8691 28.4225V30.4599Z" fill="white"/>
</svg>
