<svg width="46" height="46" viewBox="0 0 46 46" fill="none" xmlns="http://www.w3.org/2000/svg">
<path d="M30.1874 17.3938L18.9749 27.3125C18.8312 27.4563 18.8312 27.6 18.8312 27.7438L18.3999 31.625C18.3999 31.7688 18.2562 31.7688 18.1124 31.625L16.3874 25.875C16.2437 25.5875 16.3874 25.3 16.6749 25.1563L29.7562 16.9625C30.1874 16.8188 30.4749 17.25 30.1874 17.3938Z" fill="white"/>
<path d="M23 3.1626C17.5375 3.1626 12.5063 5.31885 8.91255 8.9126C5.3188 12.5063 3.0188 17.5376 3.0188 23.0001C3.0188 28.4626 5.17505 33.4938 8.91255 37.0876C12.5063 40.6813 17.5375 42.8376 23 42.8376C28.4625 42.8376 33.4938 40.6813 37.0875 37.0876C40.6813 33.4938 42.9813 28.4626 42.9813 23.0001C42.8375 12.0751 33.925 3.1626 23 3.1626ZM34.7875 14.5188L30.7625 34.0688C30.6188 34.9313 29.4688 35.3626 28.75 34.7876L22.5688 30.1876L19.4063 33.3501C18.8313 33.9251 17.9688 33.6376 17.6813 32.9188L15.3813 25.7313L9.3438 23.8626C8.4813 23.5751 8.4813 22.5688 9.3438 22.2813L33.35 12.9376C34.0688 12.7938 35.075 13.5126 34.7875 14.5188Z" fill="white"/>
</svg>
