<svg width="46" height="46" viewBox="0 0 46 46" fill="none" xmlns="http://www.w3.org/2000/svg">
<g clip-path="url(#clip0_29812_15)">
<path d="M29.7562 16.8189C26.5937 13.3689 21.1312 13.3689 17.8249 16.5314C14.9499 19.4064 14.6624 23.7189 16.8187 26.8814L16.6749 27.3127L15.9562 28.7502L14.8062 31.0502L17.2499 30.0439L18.8312 29.4689L19.2624 29.3252C22.4249 31.3377 26.8812 31.0502 29.6124 28.1752C32.6312 25.1564 32.7749 19.9814 29.7562 16.8189ZM28.4624 25.4439C28.4624 25.5877 28.3187 25.5877 28.3187 25.7314C28.1749 25.8752 28.0312 26.1627 27.7437 26.3064C27.5999 26.4502 27.3124 26.4502 27.1687 26.5939H27.0249C25.5874 26.5939 24.2937 26.1627 22.9999 25.3002C21.8499 24.5814 21.1312 23.5752 20.5562 22.2814C20.2687 21.5627 19.9812 20.7002 19.8374 19.9814C19.8374 19.6939 19.8374 19.4064 19.8374 19.1189C19.8374 18.9752 19.8374 18.6877 19.9812 18.5439C20.1249 18.4002 20.4124 18.2564 20.5562 17.9689C20.9874 17.5377 21.7062 17.5377 22.1374 17.9689C22.2812 18.1127 22.4249 18.4002 22.5687 18.5439C22.7124 18.9752 22.7124 19.2627 22.8562 19.6939C22.8562 20.1252 22.8562 20.4127 22.5687 20.7002C22.4249 20.8439 22.2812 20.9877 22.2812 20.9877C22.2812 20.9877 22.2812 20.9877 22.2812 21.1314C22.7124 22.7127 23.7187 23.7189 25.2999 24.1502H25.4437C25.5874 24.0064 25.5874 24.0064 25.7312 23.8627C26.0187 23.5752 26.4499 23.4314 26.8812 23.5752C27.1687 23.7189 27.5999 23.7189 27.8874 23.8627C28.3187 24.0064 28.7499 24.8689 28.4624 25.4439Z" fill="white"/>
<path d="M23 2.875C11.9313 2.875 2.875 11.9313 2.875 23C2.875 34.0688 11.9313 43.125 23 43.125C34.0688 43.125 43.125 34.0688 43.125 23C43.125 11.9313 34.0688 2.875 23 2.875ZM31.1938 29.1812C28.0313 32.775 22.8563 33.4938 18.8313 31.1938L12.9375 33.4937C12.5063 33.6375 12.075 33.2062 12.3625 32.775L15.0938 27.3125C12.9375 23.575 13.5125 18.6875 16.8187 15.3812C20.7 11.3562 27.3125 11.5 31.1938 15.8125C34.6438 19.55 34.6438 25.4437 31.1938 29.1812Z" fill="white"/>
</g>
<defs>
<clipPath id="clip0_29812_15">
<rect width="46" height="46" fill="white"/>
</clipPath>
</defs>
</svg>
