<svg width="46" height="46" viewBox="0 0 46 46" fill="none" xmlns="http://www.w3.org/2000/svg">
<g clip-path="url(#clip0_29694_1468)">
<path d="M0.5 23C0.5 10.573 10.573 0.5 23 0.5C35.427 0.5 45.5 10.573 45.5 23C45.5 35.4256 35.427 45.5 23 45.5C10.573 45.5 0.5 35.4256 0.5 23Z" fill="#040404" stroke="white"/>
<path d="M31.2798 25.0244L28.5615 27.1489L33.7666 33.8086L36.4848 31.6841L31.2798 25.0244Z" fill="white"/>
<path d="M32.3625 34.9084L27.1573 28.2485C27.1573 28.2485 23.7634 27.4535 21.3455 24.3615C18.9291 21.2694 18.9779 17.7835 18.9779 17.7835L13.7727 11.1235C13.7727 11.1235 8.84068 18.1888 16.5773 28.0875C24.3139 37.9861 32.3625 34.9084 32.3625 34.9084Z" fill="white"/>
<path d="M17.8938 7.90137L15.1755 10.0259L20.3806 16.6856L23.0988 14.5611L17.8938 7.90137Z" fill="white"/>
</g>
<defs>
<clipPath id="clip0_29694_1468">
<rect width="46" height="46" fill="white"/>
</clipPath>
</defs>
</svg>
