<svg width="52" height="52" viewBox="0 0 52 52" fill="none" xmlns="http://www.w3.org/2000/svg">
<g clip-path="url(#clip0_29697_1670)">
<path d="M46.2222 21.6667H44.7777V13.0001C44.7777 12.617 44.6256 12.2496 44.3547 11.9787C44.0838 11.7078 43.7164 11.5556 43.3333 11.5556H8.66662C8.32459 11.5612 7.99169 11.4452 7.72717 11.2283C7.46266 11.0114 7.2837 10.7077 7.22218 10.3712V9.85117C7.2837 9.51467 7.46266 9.21093 7.72717 8.99403C7.99169 8.77713 8.32459 8.66114 8.66662 8.66672H42.7266C43.1097 8.66672 43.4771 8.51454 43.748 8.24365C44.0189 7.97277 44.1711 7.60537 44.1711 7.22228C44.1711 6.83919 44.0189 6.47179 43.748 6.2009C43.4771 5.93001 43.1097 5.77783 42.7266 5.77783H8.66662C7.51735 5.77783 6.41515 6.23438 5.60249 7.04704C4.78983 7.85969 4.33329 8.96189 4.33329 10.1112C4.32315 10.2844 4.32315 10.458 4.33329 10.6312V40.3434C4.33896 41.1211 4.49776 41.8901 4.80063 42.6064C5.1035 43.3228 5.5445 43.9725 6.09846 44.5184C6.65242 45.0643 7.30848 45.4957 8.02918 45.7881C8.74989 46.0805 9.52112 46.228 10.2988 46.2223H43.3333C43.7164 46.2223 44.0838 46.0701 44.3547 45.7992C44.6256 45.5283 44.7777 45.1609 44.7777 44.7778V36.1112H46.2222C46.6053 36.1112 46.9727 35.959 47.2436 35.6881C47.5144 35.4172 47.6666 35.0498 47.6666 34.6667V23.1112C47.6666 22.7281 47.5144 22.3607 47.2436 22.0898C46.9727 21.8189 46.6053 21.6667 46.2222 21.6667ZM41.8888 43.3334H10.2988C9.49545 43.3411 8.72148 43.0314 8.14531 42.4714C7.56914 41.9115 7.23737 41.1467 7.22218 40.3434V14.2712C7.69104 14.407 8.17892 14.4656 8.66662 14.4445H41.8888V21.6667H31.7777C29.8623 21.6667 28.0253 22.4276 26.6709 23.7821C25.3164 25.1365 24.5555 26.9735 24.5555 28.8889C24.5555 30.8044 25.3164 32.6414 26.6709 33.9958C28.0253 35.3503 29.8623 36.1112 31.7777 36.1112H41.8888V43.3334ZM44.7777 33.2223H31.7777C30.6285 33.2223 29.5263 32.7657 28.7136 31.9531C27.9009 31.1404 27.4444 30.0382 27.4444 28.8889C27.4444 27.7397 27.9009 26.6375 28.7136 25.8248C29.5263 25.0122 30.6285 24.5556 31.7777 24.5556H44.7777V33.2223Z" fill="white"/>
<path d="M33.2367 31.0555C34.4334 31.0555 35.4034 30.0855 35.4034 28.8888C35.4034 27.6922 34.4334 26.7222 33.2367 26.7222C32.0401 26.7222 31.0701 27.6922 31.0701 28.8888C31.0701 30.0855 32.0401 31.0555 33.2367 31.0555Z" fill="white"/>
</g>
<defs>
<clipPath id="clip0_29697_1670">
<rect width="52" height="52" fill="white"/>
</clipPath>
</defs>
</svg>
