<svg width="52" height="52" viewBox="0 0 52 52" fill="none" xmlns="http://www.w3.org/2000/svg">
<g clip-path="url(#clip0_29697_1634)">
<path d="M21.8374 27.7093C21.9441 27.7094 22.0498 27.6884 22.1484 27.6476C22.247 27.6068 22.3365 27.5468 22.4119 27.4713L24.294 25.5891C24.4449 25.4364 24.5292 25.2302 24.5285 25.0156C24.5279 24.801 24.4423 24.5953 24.2905 24.4435C24.1388 24.2918 23.9331 24.2062 23.7185 24.2056C23.5039 24.2049 23.2977 24.2892 23.145 24.4401L21.2629 26.3222C21.1492 26.4359 21.0719 26.5806 21.0405 26.7382C21.0092 26.8959 21.0253 27.0592 21.0867 27.2077C21.1482 27.3561 21.2524 27.483 21.386 27.5723C21.5196 27.6616 21.6767 27.7093 21.8374 27.7093Z" fill="white"/>
<path d="M12.3861 36.8726L14.042 38.5588C14.2399 38.7603 14.5044 38.8798 14.784 38.8939C15.0636 38.908 15.3383 38.8158 15.5549 38.6351L37.4561 20.3625C39.3934 20.2718 41.2631 19.6096 42.8375 18.4565C44.4119 17.3033 45.6232 15.7091 46.324 13.8676C47.0248 12.0262 47.1849 10.0171 46.7847 8.08469C46.3845 6.15232 45.4414 4.38006 44.0701 2.98362C42.6988 1.58717 40.9584 0.626746 39.0608 0.219234C37.1631 -0.188277 35.1901 -0.0253047 33.3818 0.688318C31.5735 1.40194 30.0079 2.63544 28.8755 4.23869C27.7431 5.84195 27.0928 7.74582 27.0037 9.71861L9.05972 32.0211C8.88232 32.2416 8.79174 32.5213 8.8056 32.8061C8.81946 33.0908 8.93676 33.3601 9.13471 33.5616L10.7906 35.2478L7.00773 39.0999C6.37178 39.746 5.86712 40.5134 5.52262 41.3582C5.17812 42.203 5.00053 43.1087 5 44.0235C4.99947 44.9383 5.17602 45.8442 5.51955 46.6894C5.86307 47.5346 6.36684 48.3026 7.00204 48.9495C7.63725 49.5963 8.39143 50.1093 9.22146 50.4591C10.0515 50.8089 10.9411 50.9887 11.8394 50.9882C12.7377 50.9876 13.6271 50.8068 14.4568 50.456C15.2864 50.1052 16.04 49.5913 16.6744 48.9437L24.065 41.4177C24.3326 41.1441 24.6506 40.9269 25.0008 40.7786C25.3509 40.6302 25.7264 40.5537 26.1056 40.5533C26.4849 40.5529 26.8605 40.6287 27.2109 40.7763C27.5614 40.9239 27.8798 41.1404 28.148 41.4135C28.4161 41.6866 28.6288 42.0108 28.7737 42.3677C28.9187 42.7246 28.9931 43.107 28.9927 43.4932C28.9924 43.8794 28.9172 44.2617 28.7715 44.6183C28.6259 44.9749 28.4126 45.2987 28.1439 45.5712L23.7578 50.0377C23.6528 50.1443 23.5695 50.271 23.5127 50.4104C23.4558 50.5499 23.4265 50.6994 23.4264 50.8504C23.4263 51.0014 23.4554 51.1509 23.5121 51.2904C23.5688 51.43 23.652 51.5567 23.7568 51.6635C23.8617 51.7703 23.9862 51.8549 24.1232 51.9127C24.2602 51.9704 24.4071 52.0001 24.5553 52C24.7036 51.9999 24.8504 51.9701 24.9874 51.9121C25.1243 51.8542 25.2487 51.7694 25.3534 51.6625L29.7395 47.1961C30.7036 46.2143 31.2452 44.8828 31.2452 43.4945C31.2451 42.1061 30.7035 40.7746 29.7395 39.7929C28.7754 38.8112 27.4678 38.2597 26.1044 38.2597C24.741 38.2597 23.4335 38.8112 22.4694 39.793L15.0789 47.319C14.22 48.1928 13.0556 48.6835 11.8415 48.6832C10.6275 48.6829 9.4632 48.1917 8.60473 47.3175C7.74627 46.4433 7.26387 45.2577 7.26359 44.0214C7.26332 42.7852 7.7452 41.5994 8.60328 40.7248L12.3861 36.8726ZM31.5135 4.6136C32.5969 3.51032 33.9773 2.75898 35.4801 2.45459C36.9828 2.15019 38.5405 2.30642 39.9561 2.90351C41.3717 3.5006 42.5816 4.51174 43.4328 5.80905C44.2841 7.10637 44.7384 8.63161 44.7384 10.1919C44.7384 11.7521 44.2841 13.2774 43.4328 14.5747C42.5816 15.872 41.3717 16.8832 39.9561 17.4802C38.5405 18.0773 36.9828 18.2336 35.4801 17.9292C33.9773 17.6248 32.5969 16.8734 31.5135 15.7702C30.7911 15.0393 30.2179 14.1702 29.8267 13.2128C29.4355 12.2555 29.2341 11.2288 29.2341 10.1919C29.2341 9.15495 29.4355 8.12827 29.8267 7.17091C30.2179 6.21356 30.7911 5.34445 31.5135 4.6136ZM22.6114 18.8036L28.5346 24.8353L14.9151 36.1982L11.4527 32.6725L22.6114 18.8036Z" fill="white"/>
</g>
<defs>
<clipPath id="clip0_29697_1634">
<rect width="52" height="52" fill="white"/>
</clipPath>
</defs>
</svg>
