<svg width="52" height="52" viewBox="0 0 52 52" fill="none" xmlns="http://www.w3.org/2000/svg">
<g clip-path="url(#clip0_29697_1643)">
<path d="M51.8212 23.6438L45.3212 10.6438C45.1862 10.3758 44.9796 10.1504 44.7243 9.99265C44.469 9.8349 44.175 9.75091 43.875 9.75H8.12496C7.82488 9.75091 7.5309 9.8349 7.27563 9.99265C7.02035 10.1504 6.81375 10.3758 6.67871 10.6438L0.178711 23.6438C0.185601 23.6923 0.185601 23.7415 0.178711 23.79C0.171013 23.9307 0.171013 24.0718 0.178711 24.2125L-3.87442e-05 24.375C-0.00161469 24.4021 -0.00161469 24.4292 -3.87442e-05 24.4563C0.0152039 24.6111 0.0479118 24.7637 0.0974613 24.9113C0.0974613 24.9113 0.0974613 24.9925 0.0974613 25.0413C0.163965 25.2059 0.263512 25.3553 0.389961 25.48L24.765 51.48C24.917 51.6424 25.1007 51.7718 25.3047 51.8603C25.5088 51.9487 25.7288 51.9944 25.9512 51.9944C26.1736 51.9944 26.3937 51.9487 26.5977 51.8603C26.8017 51.7718 26.9855 51.6424 27.1375 51.48L51.5125 25.48C51.7459 25.2425 51.9007 24.9389 51.9559 24.6105C52.0111 24.282 51.9641 23.9446 51.8212 23.6438ZM26 14.4463L31.2 22.75H20.8L26 14.4463ZM17.745 21.4987L11.375 13H23.075L17.745 21.4987ZM28.925 13H40.625L34.255 21.4987L28.925 13ZM31.915 26L26 44.9312L20.085 26H31.915ZM22.3437 44.1025L5.37871 26H16.7537L22.3437 44.1025ZM35.3437 26H46.7187L29.6562 44.1025L35.3437 26ZM47.775 22.75H37.375L43.5987 14.4463L47.775 22.75ZM8.40121 14.4463L14.625 22.75H4.25746L8.40121 14.4463Z" fill="white"/>
<path d="M26 6.5C26.431 6.5 26.8443 6.3288 27.149 6.02405C27.4538 5.7193 27.625 5.30598 27.625 4.875V1.625C27.625 1.19402 27.4538 0.780698 27.149 0.475951C26.8443 0.171205 26.431 0 26 0C25.569 0 25.1557 0.171205 24.851 0.475951C24.5462 0.780698 24.375 1.19402 24.375 1.625V4.875C24.375 5.30598 24.5462 5.7193 24.851 6.02405C25.1557 6.3288 25.569 6.5 26 6.5Z" fill="white"/>
<path d="M16.7213 6.02856C16.8724 6.18087 17.0521 6.30176 17.2501 6.38426C17.4481 6.46676 17.6605 6.50924 17.8751 6.50924C18.0896 6.50924 18.302 6.46676 18.5 6.38426C18.698 6.30176 18.8777 6.18087 19.0288 6.02856C19.1811 5.8775 19.302 5.69777 19.3845 5.49975C19.467 5.30173 19.5095 5.08933 19.5095 4.87481C19.5095 4.66029 19.467 4.4479 19.3845 4.24988C19.302 4.05185 19.1811 3.87213 19.0288 3.72106L17.4038 2.09606C17.0978 1.79007 16.6828 1.61816 16.2501 1.61816C15.8173 1.61816 15.4023 1.79007 15.0963 2.09606C14.7903 2.40206 14.6184 2.81707 14.6184 3.24981C14.6184 3.68255 14.7903 4.09757 15.0963 4.40356L16.7213 6.02856Z" fill="white"/>
<path d="M34.1249 6.49981C34.3388 6.50105 34.5508 6.46006 34.7487 6.37919C34.9467 6.29832 35.1268 6.17917 35.2786 6.02856L36.9036 4.40356C37.2096 4.09757 37.3815 3.68255 37.3815 3.24981C37.3815 2.81707 37.2096 2.40206 36.9036 2.09606C36.5977 1.79007 36.1826 1.61816 35.7499 1.61816C35.3172 1.61816 34.9021 1.79007 34.5962 2.09606L32.9712 3.72106C32.8188 3.87213 32.698 4.05185 32.6155 4.24988C32.533 4.4479 32.4905 4.66029 32.4905 4.87481C32.4905 5.08933 32.533 5.30173 32.6155 5.49975C32.698 5.69777 32.8188 5.8775 32.9712 6.02856C33.123 6.17917 33.3031 6.29832 33.5011 6.37919C33.699 6.46006 33.911 6.50105 34.1249 6.49981Z" fill="white"/>
</g>
<defs>
<clipPath id="clip0_29697_1643">
<rect width="52" height="52" fill="white"/>
</clipPath>
</defs>
</svg>
