<svg width="52" height="52" viewBox="0 0 52 52" fill="none" xmlns="http://www.w3.org/2000/svg">
<path d="M17.55 28.9035L23.6817 22.7718L8.47166 7.58348C6.8485 9.21133 5.93701 11.4163 5.93701 13.7152C5.93701 16.014 6.8485 18.219 8.47166 19.8468L17.55 28.9035ZM32.24 24.9818C35.555 26.5201 40.2133 25.4368 43.6583 21.9918C47.7967 17.8535 48.5983 11.9168 45.4133 8.73182C42.25 5.56849 36.3133 6.34849 32.1533 10.4868C28.7083 13.9318 27.625 18.5901 29.1633 21.9051L8.01666 43.0518L11.0717 46.1068L26 31.2218L40.9067 46.1285L43.9617 43.0735L29.055 28.1668L32.24 24.9818Z" fill="white"/>
</svg>
